<?xml version="1.0" encoding="utf-8"?>
<!-- Generator: Adobe Illustrator 22.1.0, SVG Export Plug-In . SVG Version: 6.00 Build 0)  -->
<svg version="1.1" id="Слой_1" xmlns="http://www.w3.org/2000/svg" xmlns:xlink="http://www.w3.org/1999/xlink" x="0px" y="0px"
	 viewBox="0 0 14 14" style="enable-background:new 0 0 14 14;" xml:space="preserve">
<style type="text/css">
	.st0{fill:#ffffff;}
</style>
<title>01</title>
<g>
	<g>
		<path class="st0" d="M7.8,2.7H6.2c-0.6,0-1.1,0.5-1.1,1v8.7c0,0.6,0.5,1,1.1,1h1.6c0.6,0,1.1-0.5,1.1-1V3.8
			C8.9,3.2,8.4,2.7,7.8,2.7z M12.9,0.5h-1.6c-0.6,0-1.1,0.5-1.1,1v10.9c0,0.6,0.5,1,1.1,1h1.6c0.6,0,1.1-0.5,1.1-1V1.5
			C14,1,13.5,0.5,12.9,0.5z M2.8,5.4H1c-0.5,0-1,0.4-1,0.9v6.2c0,0.5,0.4,1,1,1h1.8c0.5,0,1-0.4,1-0.9V6.4C3.7,5.8,3.3,5.4,2.8,5.4z
			"/>
	</g>
</g>
</svg>
