<?xml version="1.0" encoding="utf-8"?>
<!-- Generator: Adobe Illustrator 22.1.0, SVG Export Plug-In . SVG Version: 6.00 Build 0)  -->
<svg version="1.1" id="Слой_1" xmlns="http://www.w3.org/2000/svg" xmlns:xlink="http://www.w3.org/1999/xlink" x="0px" y="0px"
	 viewBox="0 0 14 14" style="enable-background:new 0 0 14 14;" xml:space="preserve">
<style type="text/css">
	.st0{fill:#ffffff;}
</style>
<title>01</title>
<g>
	<g>
		<path class="st0" d="M12.5,10.9H6.1c-0.8,0-1.5,0.7-1.5,1.6S5.3,14,6.1,14h6.4c0.8,0,1.5-0.7,1.5-1.6S13.3,10.9,12.5,10.9z
			 M12.5,5.4H6.1C5.3,5.4,4.7,6.1,4.7,7c0,0.9,0.7,1.6,1.5,1.6h6.4C13.3,8.6,14,7.9,14,7C14,6.1,13.3,5.4,12.5,5.4z M1.5,10.9
			c-0.8,0-1.5,0.7-1.5,1.6S0.7,14,1.5,14C2.3,14,3,13.3,3,12.4S2.3,10.9,1.5,10.9z M1.5,0C0.7,0,0,0.7,0,1.6c0,0.9,0.7,1.6,1.5,1.6
			C2.3,3.1,3,2.4,3,1.6C3,0.7,2.3,0,1.5,0z M6.1,3.1h6.4c0.8,0,1.5-0.7,1.5-1.6C14,0.7,13.3,0,12.5,0H6.1C5.3,0,4.7,0.7,4.7,1.6
			C4.7,2.4,5.3,3.1,6.1,3.1z M1.5,5.4C0.7,5.4,0,6.1,0,7c0,0.9,0.7,1.6,1.5,1.6C2.3,8.6,3,7.9,3,7C3,6.1,2.3,5.4,1.5,5.4z"/>
	</g>
</g>
</svg>
