<?xml version="1.0" encoding="utf-8"?>
<!-- Generator: Adobe Illustrator 22.1.0, SVG Export Plug-In . SVG Version: 6.00 Build 0)  -->
<svg version="1.1" id="Слой_1" xmlns="http://www.w3.org/2000/svg" xmlns:xlink="http://www.w3.org/1999/xlink" x="0px" y="0px"
	 viewBox="0 0 14 14" style="enable-background:new 0 0 14 14;" xml:space="preserve">
<style type="text/css">
	.st0{fill:#ffffff;}
</style>
<title>01</title>
<g>
	<g>
		<path class="st0" d="M1.5,6.8v6.8c0,0.1,0,0.2,0.1,0.3C1.7,14,1.8,14,1.9,14h3.3V9.7c0-0.1,0-0.2,0.1-0.3c0.1-0.1,0.2-0.1,0.3-0.1
			h2.8c0.1,0,0.2,0,0.3,0.1c0.1,0.1,0.1,0.2,0.1,0.3V14h3.3c0.1,0,0.2,0,0.3-0.1c0.1-0.1,0.1-0.2,0.1-0.3V6.7L6.9,2.4L1.5,6.8z
			 M13.7,4.9L7.5,0.2c-0.3-0.2-0.7-0.2-1,0L3.2,2.7V1.4H1.6V4l-1.3,1C0,5.2-0.1,5.7,0.2,6.1c0.2,0.2,0.4,0.3,0.6,0.3
			c0.1,0,0.2,0,0.3,0l5.7-4.5c0.1-0.1,0.3-0.1,0.4,0l5.8,4.5c0.3,0.1,0.7,0,0.9-0.3C14.1,5.7,14,5.2,13.7,4.9z"/>
	</g>
</g>
</svg>
