<?xml version="1.0" encoding="utf-8"?>
<!-- Generator: Adobe Illustrator 22.1.0, SVG Export Plug-In . SVG Version: 6.00 Build 0)  -->
<svg version="1.1" id="Слой_1" xmlns="http://www.w3.org/2000/svg" xmlns:xlink="http://www.w3.org/1999/xlink" x="0px" y="0px"
	 viewBox="0 0 14 14" style="enable-background:new 0 0 14 14;" xml:space="preserve">
<style type="text/css">
	.st0{fill:#ffffff;}
</style>
<title>01</title>
<path class="st0" d="M10.9,14H3.1C1.4,14,0,12.6,0,10.9V3.1C0,1.4,1.4,0,3.1,0h7.8C12.6,0,14,1.4,14,3.1v7.8
	C14,12.6,12.6,14,10.9,14z M7,3.1c-0.4,0-0.8,0.3-0.8,0.8c0,0.4,0.3,0.8,0.8,0.8c0.4,0,0.8-0.3,0.8-0.8C7.8,3.5,7.4,3.1,7,3.1z
	 M7.8,9.3V5.4H6.2c-0.4,0-0.8,0.3-0.8,0.8C5.4,6.7,5.8,7,6.2,7v2.3c-0.4,0-0.8,0.3-0.8,0.8c0,0.4,0.3,0.8,0.8,0.8h1.6
	c0.4,0,0.8-0.3,0.8-0.8C8.6,9.7,8.2,9.3,7.8,9.3z"/>
</svg>
