<?xml version="1.0" encoding="utf-8"?>
<!-- Generator: Adobe Illustrator 22.1.0, SVG Export Plug-In . SVG Version: 6.00 Build 0)  -->
<svg version="1.1" id="Слой_1" xmlns="http://www.w3.org/2000/svg" xmlns:xlink="http://www.w3.org/1999/xlink" x="0px" y="0px"
	 viewBox="0 0 14 14" style="enable-background:new 0 0 14 14;" xml:space="preserve">
<style type="text/css">
	.st0{fill:#3C3C3B;}
</style>
<path class="st0" d="M13.8,4.9h-1.3l-0.9-2C11,2.2,10.6,2,10,2H4C3.4,2,3,2.2,2.5,3l-0.9,2H0.2C0,4.9-0.4,6,1,6L0.6,7.2
	c0,1.4,0,2.9,0,4.3c0,0.3,0.2,0.5,0.6,0.5H3c0.3,0,0.5-0.2,0.5-0.5v-1.2h7v1.2c0,0.3,0.2,0.5,0.6,0.5h1.8c0.3,0,0.5-0.2,0.5-0.5
	c0-1.4,0-2.9,0-4.3L13,6C14.4,6,14,4.9,13.8,4.9z M2.6,9C2.1,9,1.7,8.6,1.7,8.1c0-0.5,0.4-0.9,0.9-0.9c0.5,0,0.9,0.4,0.9,0.9
	C3.5,8.6,3.1,9,2.6,9z M8.9,8.9H5.1c-0.2,0-0.4-0.2-0.4-0.4C4.7,8.2,4.9,8,5.1,8h3.8c0.2,0,0.4,0.2,0.4,0.4C9.3,8.7,9.1,8.9,8.9,8.9
	z M2.3,5.5c0.3-0.6,0.6-1.2,0.9-1.9C3.4,3.3,3.6,3,4,2.9h6c0.4,0,0.6,0.3,0.8,0.7c0.4,0.7,0.6,1.3,0.9,1.9H2.3z M11.4,9
	c-0.5,0-0.9-0.4-0.9-0.9c0-0.5,0.4-0.9,0.9-0.9c0.5,0,0.9,0.4,0.9,0.9C12.3,8.6,11.9,9,11.4,9z"/>
</svg>
