<?xml version="1.0" encoding="utf-8"?>
<!-- Generator: Adobe Illustrator 22.1.0, SVG Export Plug-In . SVG Version: 6.00 Build 0)  -->
<svg version="1.1" id="Слой_1" xmlns="http://www.w3.org/2000/svg" xmlns:xlink="http://www.w3.org/1999/xlink" x="0px" y="0px"
	 viewBox="0 0 14 14" style="enable-background:new 0 0 14 14;" xml:space="preserve">
<style type="text/css">
	.st0{fill:#3C3C3B;}
</style>
<path class="st0" d="M3.9,2.2c0.6-0.4,1.1-0.6,1.8-0.8L6,0.3C6,0.1,6.2,0,6.4,0h1.3C7.8,0,8,0.1,8,0.3l0.3,1.1
	c0.6,0.1,1.3,0.4,1.8,0.8l1-0.6c0.1-0.1,0.4-0.1,0.5,0.1l0.9,0.9c0.1,0.1,0.1,0.3,0.1,0.5l-0.6,1c0.3,0.5,0.6,1.1,0.8,1.8L13.7,6
	C13.9,6,14,6.2,14,6.4v1.3C14,7.8,13.9,8,13.7,8l-1.1,0.3c-0.1,0.6-0.4,1.3-0.8,1.8l0.6,1c0.1,0.1,0.1,0.4-0.1,0.5l-0.9,0.9
	c-0.1,0.1-0.3,0.1-0.5,0.1l-1-0.6c-0.5,0.3-1.1,0.6-1.8,0.8L8,13.7C8,13.9,7.8,14,7.6,14H6.4C6.2,14,6,13.9,6,13.7l-0.3-1.1
	c-0.6-0.1-1.3-0.4-1.8-0.8l-1,0.6c-0.1,0.1-0.4,0.1-0.5-0.1l-0.9-0.9c-0.1-0.1-0.1-0.3-0.1-0.5L2,10C1.8,9.5,1.5,8.9,1.4,8.3L0.3,8
	C0.2,8,0,7.8,0,7.6V6.4C0,6.2,0.1,6,0.3,6l1.1-0.3c0.1-0.6,0.4-1.3,0.8-1.8L1.6,3c-0.1-0.1-0.1-0.4,0-0.5l1-0.9
	c0.1-0.1,0.3-0.1,0.5-0.1L3.9,2.2z M7,10.8c2.1,0,3.8-1.7,3.8-3.8S9.1,3.2,7,3.2S3.2,4.9,3.2,7S4.9,10.8,7,10.8z M7,9.2
	c-1.3,0-2.2-1-2.2-2.2s1-2.2,2.2-2.2s2.2,1,2.2,2.2S8.3,9.2,7,9.2z"/>
</svg>
