<?xml version="1.0" encoding="utf-8"?>
<!-- Generator: Adobe Illustrator 22.1.0, SVG Export Plug-In . SVG Version: 6.00 Build 0)  -->
<svg version="1.1" id="Слой_1" xmlns="http://www.w3.org/2000/svg" xmlns:xlink="http://www.w3.org/1999/xlink" x="0px" y="0px"
	 viewBox="0 0 14 14" style="enable-background:new 0 0 14 14;" xml:space="preserve">
<style type="text/css">
	.st0{fill:#3C3C3B;}
</style>
<path class="st0" d="M7,0C3.1,0,0,3.1,0,7c0,1.4,0.4,2.7,1.1,3.8L0,14l3.2-1.1C4.3,13.6,5.6,14,7,14c3.9,0,7-3.1,7-7
	C14,3.1,10.9,0,7,0z M7.5,10.5H6.4V9.4h1.1V10.5z M8,7.6C7.8,7.7,7.5,8,7.5,8.1v0.6H6.3V8.1c0-0.7,0.5-1.1,1-1.4
	c0.5-0.4,0.8-0.6,0.8-1c0-0.4-0.4-1-1-1c-0.7,0-1.2,0.7-1.2,1.2H4.8c0-1.1,1-2.3,2.3-2.3c1.3,0,2.2,1.1,2.2,2.2
	C9.2,6.6,8.5,7.2,8,7.6z"/>
</svg>
