<?xml version="1.0" encoding="utf-8"?>
<!-- Generator: Adobe Illustrator 22.1.0, SVG Export Plug-In . SVG Version: 6.00 Build 0)  -->
<svg version="1.1" id="Слой_1" xmlns="http://www.w3.org/2000/svg" xmlns:xlink="http://www.w3.org/1999/xlink" x="0px" y="0px"
	 viewBox="0 0 14 14" style="enable-background:new 0 0 14 14;" xml:space="preserve">
<style type="text/css">
	.st0{fill:#606266;}
</style>
<path class="st0" d="M1,2h6c0.6,0,1,0.4,1,1S7.6,4,7,4H1C0.4,4,0,3.6,0,3S0.4,2,1,2z M1,10h8c0.6,0,1,0.4,1,1c0,0.6-0.4,1-1,1H1
	c-0.6,0-1-0.4-1-1C0,10.4,0.4,10,1,10z M1,6h12c0.6,0,1,0.4,1,1c0,0.6-0.4,1-1,1H1C0.4,8,0,7.6,0,7C0,6.4,0.4,6,1,6z"/>
</svg>
