<?xml version="1.0" encoding="utf-8"?>
<!-- Generator: Adobe Illustrator 22.1.0, SVG Export Plug-In . SVG Version: 6.00 Build 0)  -->
<svg version="1.1" id="Слой_1" xmlns="http://www.w3.org/2000/svg" xmlns:xlink="http://www.w3.org/1999/xlink" x="0px" y="0px"
	 viewBox="0 0 12 12" style="enable-background:new 0 0 12 12;" xml:space="preserve">
<style type="text/css">
	.st0{fill:#28a5e0;}
</style>
<g>
	<g>
		<path class="st0" d="M6,7.4c0.5,0,1-0.4,1-0.9V0.9C7,0.4,6.5,0,6,0S5,0.4,5,0.9v5.5C5,7,5.5,7.4,6,7.4z M10.1,1.7
			c-0.4-0.4-1-0.3-1.4,0.1c-0.4,0.4-0.3,1,0.1,1.3c0.8,0.8,1.3,1.9,1.3,3c0,2.2-1.8,4-4.1,4c-2.3,0-4.1-1.8-4.1-4
			c0-1.1,0.5-2.2,1.3-3c0.4-0.4,0.4-0.9,0.1-1.3c-0.4-0.4-1-0.4-1.4-0.1C0.7,2.8,0,4.4,0,6.1C0,9.3,2.7,12,6,12s6-2.7,6-5.9
			C12,4.4,11.3,2.8,10.1,1.7z"/>
	</g>
</g>
</svg>
