<?xml version="1.0" encoding="utf-8"?>
<!-- Generator: Adobe Illustrator 22.1.0, SVG Export Plug-In . SVG Version: 6.00 Build 0)  -->
<svg version="1.1" id="Слой_1" xmlns="http://www.w3.org/2000/svg" xmlns:xlink="http://www.w3.org/1999/xlink" x="0px" y="0px"
	 viewBox="0 0 14 14" style="enable-background:new 0 0 14 14;" xml:space="preserve">
<style type="text/css">
	.st0{fill:#41BEA2;}
</style>
<path class="st0" d="M0.2,7.5l5.5,5.4c0.2,0.2,0.5,0.2,0.8,0l1.3-1.3C8,11.4,8,11,7.8,10.8L5.6,8.6h7.8C13.8,8.6,14,8.4,14,8V6.1
	c0-0.3-0.3-0.6-0.6-0.6H5.6l2.2-2.2C8,3.1,8,2.7,7.8,2.5L6.5,1.2C6.3,1,5.9,1,5.7,1.2L0.2,6.6C-0.1,6.9-0.1,7.3,0.2,7.5z"/>
</svg>
