<?xml version="1.0" encoding="utf-8"?>
<!-- Generator: Adobe Illustrator 22.1.0, SVG Export Plug-In . SVG Version: 6.00 Build 0)  -->
<svg version="1.1" id="Слой_1" xmlns="http://www.w3.org/2000/svg" xmlns:xlink="http://www.w3.org/1999/xlink" x="0px" y="0px"
	 viewBox="0 0 14 14" style="enable-background:new 0 0 14 14;" xml:space="preserve">
<style type="text/css">
	.st0{fill:#41BEA2;}
</style>
<path class="st0" d="M13.8,6.6L8.3,1.2C8.1,1,7.8,1,7.5,1.2L6.2,2.5C6,2.7,6,3.1,6.2,3.3l2.2,2.2H0.6C0.2,5.5,0,5.7,0,6.1V8
	c0,0.3,0.3,0.6,0.6,0.6h7.8l-2.2,2.2C6,11,6,11.4,6.2,11.6l1.3,1.3c0.2,0.2,0.6,0.2,0.8,0l5.5-5.4C14.1,7.2,14.1,6.8,13.8,6.6z"/>
</svg>
