<?xml version="1.0" encoding="utf-8"?>
<!-- Generator: Adobe Illustrator 22.1.0, SVG Export Plug-In . SVG Version: 6.00 Build 0)  -->
<svg version="1.1" id="Слой_1" xmlns="http://www.w3.org/2000/svg" xmlns:xlink="http://www.w3.org/1999/xlink" x="0px" y="0px"
	 viewBox="0 0 12 12" style="enable-background:new 0 0 12 12;" xml:space="preserve">
<style type="text/css">
	.st0{fill:#ffffff;}
</style>
<path class="st0" d="M6,0C5.3,0,4.8,0.5,4.8,1.2v3.6H1.2C0.5,4.8,0,5.3,0,6c0,0.7,0.5,1.2,1.2,1.2h3.6v3.6C4.8,11.5,5.3,12,6,12
	c0.7,0,1.2-0.5,1.2-1.2V7.2h3.6C11.5,7.2,12,6.7,12,6c0-0.7-0.5-1.2-1.2-1.2H7.2V1.2C7.2,0.5,6.7,0,6,0z"/>
</svg>
