<?xml version="1.0" encoding="utf-8"?>
<!-- Generator: Adobe Illustrator 22.1.0, SVG Export Plug-In . SVG Version: 6.00 Build 0)  -->
<svg version="1.1" id="Слой_1" xmlns="http://www.w3.org/2000/svg" xmlns:xlink="http://www.w3.org/1999/xlink" x="0px" y="0px"
	 viewBox="0 0 14 14" style="enable-background:new 0 0 14 14;" xml:space="preserve">

<g>
	<g>
		<path class="st0" d="M7,1C3.1,1,0,4.1,0,7.9c0,1.9,0.8,3.8,2.3,5.1c0.1-0.3,0.2-0.5,0.4-0.8c0.5-1.1,1.3-2,2.2-2.7
			C5,9.4,5.2,9.3,5.4,9.2C5.1,9,4.8,8.8,4.6,8.5C3.7,7.2,4,5.4,5.4,4.5c1.3-0.9,3.1-0.6,4,0.7c0.9,1.3,0.6,3.1-0.7,4
			C8.8,9.3,9,9.4,9.1,9.5c0.9,0.7,1.7,1.7,2.2,2.7c0.1,0.3,0.3,0.5,0.4,0.8c1.5-1.3,2.3-3.2,2.3-5.1C14,4.1,10.9,1,7,1z M7.4,10
			c0-0.2-0.2-0.3-0.4-0.3S6.6,9.9,6.6,10c0,0.2,0.1,0.4,0.2,0.5l-0.4,1.6L7,13l0.6-0.9l-0.4-1.6C7.3,10.4,7.4,10.2,7.4,10z"/>
	</g>
</g>
</svg>
