<?xml version="1.0" encoding="utf-8"?>
<!-- Generator: Adobe Illustrator 22.1.0, SVG Export Plug-In . SVG Version: 6.00 Build 0)  -->
<svg version="1.1" id="Слой_1" xmlns="http://www.w3.org/2000/svg" xmlns:xlink="http://www.w3.org/1999/xlink" x="0px" y="0px"
	 viewBox="0 0 14 14" style="enable-background:new 0 0 14 14;" xml:space="preserve">

<path class="st0" d="M13.4,10.9h-1.2c0-0.1,0-0.1,0-0.2V2.4c0-0.2-0.2-0.4-0.5-0.4H9.7C9.5,2,9.3,2.2,9.3,2.4v8.3c0,0.1,0,0.1,0,0.2
	H8.5c0,0,0-0.1,0-0.1V4.9c0-0.2-0.2-0.4-0.4-0.4H5.9c-0.2,0-0.4,0.2-0.4,0.4v5.9c0,0,0,0.1,0,0.1H4.8c0,0,0,0,0,0V7.1
	c0-0.2-0.1-0.3-0.3-0.3H2.1C2,6.8,1.8,6.9,1.8,7.1v3.8c0,0,0,0,0,0H0.6c-0.3,0-0.6,0.2-0.6,0.5C0,11.8,0.3,12,0.6,12h12.9
	c0.3,0,0.6-0.2,0.6-0.5C14,11.2,13.7,10.9,13.4,10.9z"/>
</svg>
