<?xml version="1.0" encoding="utf-8"?>
<!-- Generator: Adobe Illustrator 22.1.0, SVG Export Plug-In . SVG Version: 6.00 Build 0)  -->
<svg version="1.1" id="Слой_1" xmlns="http://www.w3.org/2000/svg" xmlns:xlink="http://www.w3.org/1999/xlink" x="0px" y="0px"
	 viewBox="0 0 28 28" style="enable-background:new 0 0 28 28;" xml:space="preserve">
<style type="text/css">
	.st0{fill-rule:evenodd;clip-rule:evenodd;fill:#FFFFFF;}
</style>
<path class="st0" d="M14,0C6.3,0,0,6.3,0,14c0,7.7,6.3,14,14,14c7.7,0,14-6.3,14-14C28,6.3,21.7,0,14,0z M20,19
	c0,0.5-0.6,0.9-1.6,1.3C17.2,20.8,15.7,21,14,21s-3.2-0.2-4.4-0.7C8.6,20,8,19.5,8,19v-2.2c0.3,0.3,0.8,0.5,1.4,0.8
	c1.2,0.4,2.9,0.7,4.6,0.7s3.4-0.2,4.6-0.7c0.6-0.2,1.1-0.5,1.4-0.8V19z M20,15.7c0,0.5-0.6,0.9-1.6,1.3c-1.2,0.4-2.7,0.7-4.4,0.7
	s-3.2-0.2-4.4-0.7c-1-0.4-1.6-0.9-1.6-1.3v-2.2c0.3,0.3,0.8,0.5,1.4,0.8c1.2,0.4,2.9,0.7,4.6,0.7s3.4-0.2,4.6-0.7
	c0.6-0.2,1.1-0.5,1.4-0.8V15.7z M20,12.3c0,0.5-0.6,0.9-1.6,1.3c-1.2,0.4-2.7,0.7-4.4,0.7s-3.2-0.2-4.4-0.7c-1-0.4-1.6-0.9-1.6-1.3
	v-2.2c0.1,0.1,0.1,0.1,0.2,0.2c0,0,0.1,0,0.1,0.1c0,0,0.1,0,0.1,0.1c0,0,0,0,0,0c0,0,0.1,0,0.1,0c0,0,0,0,0,0c0,0,0,0,0.1,0
	c0,0,0,0,0,0c0,0,0,0,0.1,0c0,0,0,0,0,0c0,0,0,0,0,0c0,0,0,0,0,0c0,0,0.1,0,0.1,0.1c0,0,0,0,0,0c0,0,0.1,0,0.1,0c0,0,0,0,0.1,0
	c0,0,0,0,0.1,0c0,0,0,0,0.1,0c0,0,0,0,0.1,0c0,0,0,0,0.1,0c0,0,0.1,0,0.1,0c1.2,0.5,2.9,0.7,4.6,0.7s3.4-0.2,4.6-0.7
	c0,0,0.1,0,0.1,0c0,0,0,0,0.1,0c0,0,0,0,0.1,0c0,0,0,0,0.1,0c0,0,0,0,0.1,0c0,0,0,0,0.1,0c0,0,0.1,0,0.1,0c0,0,0,0,0,0
	c0,0,0.1,0,0.1-0.1c0,0,0,0,0,0c0,0,0,0,0,0c0,0,0,0,0,0c0,0,0,0,0.1,0c0,0,0,0,0,0c0,0,0,0,0.1,0c0,0,0,0,0,0c0,0,0.1,0,0.1,0
	c0,0,0,0,0,0c0,0,0.1,0,0.1-0.1c0,0,0.1,0,0.1-0.1c0.1,0,0.1-0.1,0.2-0.2V12.3z M18.4,10.3C17.2,10.7,15.7,11,14,11
	s-3.2-0.2-4.4-0.7C8.6,9.9,8,9.4,8,9C8,8.5,8.6,8,9.6,7.7C10.8,7.2,12.3,7,14,7s3.2,0.2,4.4,0.7C19.4,8,20,8.5,20,9
	C20,9.4,19.4,9.9,18.4,10.3z"/>
</svg>
