<?xml version="1.0" encoding="utf-8"?>
<!-- Generator: Adobe Illustrator 22.1.0, SVG Export Plug-In . SVG Version: 6.00 Build 0)  -->
<svg version="1.1" id="Слой_1" xmlns="http://www.w3.org/2000/svg" xmlns:xlink="http://www.w3.org/1999/xlink" x="0px" y="0px"
	 viewBox="0 0 14 14" style="enable-background:new 0 0 14 14;" xml:space="preserve">

<path class="st0" d="M7,5.7C6.3,5.7,5.7,6.3,5.7,7S6.3,8.3,7,8.3c0.7,0,1.3-0.6,1.3-1.3S7.7,5.7,7,5.7z M7,5.7
	C6.3,5.7,5.7,6.3,5.7,7S6.3,8.3,7,8.3c0.7,0,1.3-0.6,1.3-1.3S7.7,5.7,7,5.7z M13.8,6.5c0,0-3-3.5-6.8-3.5C3.1,3,0.2,6.5,0.2,6.5
	c-0.2,0.3-0.2,0.7,0,0.9c0,0,3,3.5,6.8,3.5c3.7,0,6.8-3.5,6.8-3.5C14.1,7.2,14.1,6.8,13.8,6.5z M7,9.8C5.4,9.8,4.1,8.6,4.1,7
	S5.4,4.2,7,4.2c1.6,0,2.9,1.3,2.9,2.8S8.6,9.8,7,9.8z M7,5.7C6.3,5.7,5.7,6.3,5.7,7S6.3,8.3,7,8.3c0.7,0,1.3-0.6,1.3-1.3
	S7.7,5.7,7,5.7z"/>
</svg>
