<?xml version="1.0" encoding="utf-8"?>
<!-- Generator: Adobe Illustrator 22.1.0, SVG Export Plug-In . SVG Version: 6.00 Build 0)  -->
<svg version="1.1" id="Слой_1" xmlns="http://www.w3.org/2000/svg" xmlns:xlink="http://www.w3.org/1999/xlink" x="0px" y="0px"
	 viewBox="0 0 14 14" style="enable-background:new 0 0 14 14;" xml:space="preserve">
<style type="text/css">
	.st0{fill:#ffffff;}
</style>
<title>01</title>
<g>
	<g>
		<path class="st0" d="M4.6,9.7H0v1.8C0,12.9,1.1,14,2.3,14h1.3c0.6,0,2.1-1.6,2.1-3.2C5.7,10.2,5.2,9.7,4.6,9.7z M9.8,8.9H14V5.1
			H9.8V8.9z M5.7,3.2c0-0.6-0.5-1.1-1-1.1c-1,0-1.8-0.9-1.8-1.9V0H2.3C1.1,0,0,1.1,0,2.5v1.8h4.6C5.2,4.3,5.7,3.8,5.7,3.2z M4.2,5.1
			H0v3.7h4.2V5.1z M8.3,10.8c0,1.6,1.5,3.2,2.1,3.2h1.3c1.3,0,2.3-1.1,2.3-2.5V9.7H9.4C8.8,9.7,8.3,10.2,8.3,10.8z M11.7,0H3.6v0.2
			c0,0.6,0.5,1.1,1,1.1c1,0,1.8,0.9,1.8,1.9c0,0.9-0.6,1.7-1.4,1.9v3.8c0.8,0.2,1.4,1,1.4,1.9c0,1.2-0.6,2.4-1.4,3.2h3.9
			c-0.8-0.8-1.4-2-1.4-3.2c0-0.9,0.6-1.7,1.4-1.9V5.1c-0.8-0.2-1.4-1-1.4-1.9c0-1.1,0.8-1.9,1.8-1.9c0.2,0,0.4,0.2,0.4,0.4
			c0,0.2-0.2,0.4-0.4,0.4c-0.6,0-1,0.5-1,1.1c0,0.6,0.5,1.1,1,1.1H14V2.5C14,1.1,12.9,0,11.7,0z"/>
	</g>
</g>
</svg>
