<?xml version="1.0" encoding="utf-8"?>
<!-- Generator: Adobe Illustrator 22.1.0, SVG Export Plug-In . SVG Version: 6.00 Build 0)  -->
<svg version="1.1" id="Слой_1" xmlns="http://www.w3.org/2000/svg" xmlns:xlink="http://www.w3.org/1999/xlink" x="0px" y="0px"
	 viewBox="0 0 12 12" style="enable-background:new 0 0 12 12;" xml:space="preserve">
<style type="text/css">
	.st0{fill:#28a5e0;}
</style>
<g>
	<g>
		<path class="st0" d="M4,8.3H0v1.6C0,11,0.9,12,2,12h1.1c0.5,0,1.8-1.3,1.8-2.8C4.9,8.7,4.5,8.3,4,8.3z M8.4,7.6H12V4.4H8.4V7.6z
			 M4.9,2.8c0-0.5-0.4-0.9-0.9-0.9c-0.9,0-1.6-0.7-1.6-1.7V0H2C0.9,0,0,1,0,2.1v1.6h4C4.5,3.7,4.9,3.3,4.9,2.8z M3.6,4.4H0v3.2h3.6
			V4.4z M7.1,9.2c0,1.4,1.3,2.8,1.8,2.8H10c1.1,0,2-1,2-2.1V8.3H8C7.5,8.3,7.1,8.7,7.1,9.2z M10,0H3.1v0.2c0,0.5,0.4,0.9,0.9,0.9
			c0.9,0,1.6,0.7,1.6,1.7c0,0.8-0.5,1.5-1.2,1.6v3.3C5,7.8,5.5,8.4,5.5,9.2c0,1-0.5,2.1-1.2,2.8h3.3C7,11.3,6.5,10.2,6.5,9.2
			c0-0.8,0.5-1.5,1.2-1.6V4.4C7,4.2,6.5,3.5,6.5,2.8c0-0.9,0.7-1.7,1.6-1.7c0.2,0,0.3,0.2,0.3,0.4c0,0.2-0.1,0.4-0.3,0.4
			c-0.5,0-0.9,0.4-0.9,0.9c0,0.5,0.4,0.9,0.9,0.9h4V2.1C12,1,11.1,0,10,0z"/>
	</g>
</g>
</svg>
