<?xml version="1.0" encoding="utf-8"?>
<!-- Generator: Adobe Illustrator 22.1.0, SVG Export Plug-In . SVG Version: 6.00 Build 0)  -->
<svg version="1.1" id="Слой_1" xmlns="http://www.w3.org/2000/svg" xmlns:xlink="http://www.w3.org/1999/xlink" x="0px" y="0px"
	 viewBox="0 0 14 14" style="enable-background:new 0 0 14 14;" xml:space="preserve">

<path class="st0" d="M12.7,2.4l-2.5-2.1C10.1,0.1,9.8,0,9.5,0H3C1.9,0,1,0.8,1,1.8v10.5c0,1,0.9,1.8,2,1.8h8c1.1,0,2-0.8,2-1.8V3
	C13,2.8,12.9,2.5,12.7,2.4z M4.7,12.4H3.9c-0.6,0-1-0.4-1-0.9v-0.7c0-0.1,0.1-0.2,0.3-0.2h1.6c0.1,0,0.3,0.1,0.3,0.2v1.4
	C5,12.3,4.9,12.4,4.7,12.4z M4.7,7H3.1C3,7,2.9,6.9,2.9,6.8V6.1c0-0.5,0.5-0.9,1-0.9h0.8C4.9,5.2,5,5.3,5,5.4v1.4C5,6.9,4.9,7,4.7,7
	z M7.8,12.4H6.2c-0.1,0-0.3-0.1-0.3-0.2v-1.4c0-0.1,0.1-0.2,0.3-0.2l1.5,0c0.1,0,0.3,0.1,0.3,0.2v1.4C8,12.3,7.9,12.4,7.8,12.4z
	 M7.8,7L6.2,7C6.1,7,6,6.9,6,6.8V5.4c0-0.1,0.1-0.2,0.3-0.2h1.5C7.9,5.2,8,5.3,8,5.4v1.4C8,6.9,7.9,7,7.8,7z M11.1,11.5
	c0,0.5-0.5,0.9-1,0.9H9.3c-0.1,0-0.3-0.1-0.3-0.2v-1.4c0-0.1,0.1-0.2,0.3-0.2h1.6c0.1,0,0.3,0.1,0.3,0.2V11.5z M2.9,9.4V8.1
	C2.9,8,3,7.9,3.1,7.9l7.7,0c0.1,0,0.3,0.1,0.3,0.2v1.3c0,0.1-0.1,0.2-0.3,0.2l-7.7,0C3,9.7,2.9,9.6,2.9,9.4z M10.9,7H9.3
	C9.1,7,9,6.9,9,6.8V5.4c0-0.1,0.1-0.2,0.3-0.2h0.8c0.6,0,1,0.4,1,0.9v0.7C11.1,6.9,11,7,10.9,7z"/>
</svg>
