<?xml version="1.0" encoding="utf-8"?>
<!-- Generator: Adobe Illustrator 22.1.0, SVG Export Plug-In . SVG Version: 6.00 Build 0)  -->
<svg version="1.1" id="Слой_1" xmlns="http://www.w3.org/2000/svg" xmlns:xlink="http://www.w3.org/1999/xlink" x="0px" y="0px"
	 viewBox="0 0 28 28" style="enable-background:new 0 0 28 28;" xml:space="preserve">
<style type="text/css">
	.st0{fill-rule:evenodd;clip-rule:evenodd;fill:#FFFFFF;}
</style>
<path class="st0" d="M14,0C6.3,0,0,6.3,0,14c0,7.7,6.3,14,14,14c7.7,0,14-6.3,14-14C28,6.3,21.7,0,14,0z M8.1,9.5h11.8
	c0.1,0,0.3,0,0.4,0.1l-6,5.2c-0.2,0.2-0.4,0.2-0.7,0l-6-5.2C7.8,9.5,7.9,9.5,8.1,9.5z M7,17.5v-6.9c0,0,0-0.1,0-0.1h0l4.2,3.6
	l-4.1,3.8C7,17.7,7,17.6,7,17.5z M19.9,18.5H8.1c0,0-0.1,0-0.1,0l4.1-3.8l0.9,0.8c0.6,0.5,1.5,0.5,2.1,0l0.9-0.8l4.1,3.8
	C20,18.5,20,18.5,19.9,18.5z M21,17.5c0,0.1,0,0.3-0.1,0.4L16.8,14l4.2-3.6h0c0,0,0,0.1,0,0.1V17.5z"/>
</svg>
