<?xml version="1.0" encoding="utf-8"?>
<!-- Generator: Adobe Illustrator 22.1.0, SVG Export Plug-In . SVG Version: 6.00 Build 0)  -->
<svg version="1.1" id="Слой_1" xmlns="http://www.w3.org/2000/svg" xmlns:xlink="http://www.w3.org/1999/xlink" x="0px" y="0px"
	 viewBox="0 0 12 12" style="enable-background:new 0 0 12 12;" xml:space="preserve">
<style type="text/css">
	.st0{fill:#ffffff;}
</style>
<path class="st0" d="M0.9,1.5c-0.1,0-0.2,0-0.3,0.1l5.1,5.2c0.2,0.2,0.4,0.2,0.6,0l5.1-5.2c-0.1,0-0.2-0.1-0.3-0.1H0.9z M0,2.4c0,0,0,0.1,0,0.1
	v6.9c0,0.1,0,0.3,0.1,0.4L3.6,6L0,2.4L0,2.4z M12,2.4L8.4,6l3.5,3.8C12,9.7,12,9.6,12,9.5V2.5C12,2.5,12,2.4,12,2.4L12,2.4z
	 M7.7,6.7L6.9,7.5C6.4,8,5.6,8,5.1,7.5L4.3,6.7l-3.5,3.8c0,0,0.1,0,0.1,0h10.2c0,0,0.1,0,0.1,0L7.7,6.7z"/>
</svg>
