<?xml version="1.0" encoding="utf-8"?>
<!-- Generator: Adobe Illustrator 22.1.0, SVG Export Plug-In . SVG Version: 6.00 Build 0)  -->
<svg version="1.1" id="Слой_1" xmlns="http://www.w3.org/2000/svg" xmlns:xlink="http://www.w3.org/1999/xlink" x="0px" y="0px"
	 viewBox="0 0 14 14" style="enable-background:new 0 0 14 14;" xml:space="preserve">
<style type="text/css">
	.st0{fill:#ffffff;}
</style>
<title>01</title>
<path class="st0" d="M13.6,9V2.6c0-0.7-0.3-1.3-0.7-1.8C12.4,0.3,11.7,0,11,0H3C2.3,0,1.6,0.3,1.2,0.7C0.7,1.2,0.4,1.9,0.4,2.6V9
	c0,0.7,0.3,1.3,0.7,1.8c0.5,0.5,1.1,0.8,1.8,0.8h4.8l3.2,2.3c0.2,0.1,0.4,0.1,0.6-0.1c0.1-0.1,0.1-0.2,0.1-0.3l-0.4-1.9
	c0.6,0,1.2-0.3,1.6-0.7C13.3,10.4,13.6,9.7,13.6,9L13.6,9z M4.6,6.2c0,0.5-0.4,0.9-0.9,0.9c-0.5,0-0.9-0.4-0.9-0.9
	c0-0.5,0.4-0.9,0.9-0.9C4.1,5.3,4.6,5.7,4.6,6.2L4.6,6.2z M10.4,7.1c-0.5,0-0.9-0.4-0.9-0.9c0-0.5,0.4-0.9,0.9-0.9
	c0.5,0,0.9,0.4,0.9,0.9C11.3,6.7,10.9,7.1,10.4,7.1L10.4,7.1z M7,7.1c-0.5,0-0.9-0.4-0.9-0.9c0-0.5,0.4-0.9,0.9-0.9
	c0.5,0,0.9,0.4,0.9,0.9C7.9,6.7,7.5,7.1,7,7.1L7,7.1z"/>
</svg>
