<?xml version="1.0" encoding="utf-8"?>
<!-- Generator: Adobe Illustrator 22.1.0, SVG Export Plug-In . SVG Version: 6.00 Build 0)  -->
<svg version="1.1" id="Слой_1" xmlns="http://www.w3.org/2000/svg" xmlns:xlink="http://www.w3.org/1999/xlink" x="0px" y="0px"
	 viewBox="0 0 12 12" style="enable-background:new 0 0 12 12;" xml:space="preserve">
<style type="text/css">
	.st0{fill:#28a5e0;}
</style>
<g>
	<g>
		<path class="st0" d="M6,0L6,0C3.8,0,2,1.7,2,3.8c0,1.1,0.4,2,1.2,2.7c0.6,0.5,0.9,1.2,1.1,1.9h3.5c0.2-0.7,0.5-1.3,1.1-1.9
			C9.6,5.8,10,4.9,10,3.8C10,1.7,8.2,0,6,0z M4.3,10.4C4.3,11.3,5.1,12,6,12c0.9,0,1.7-0.7,1.7-1.6V9.3H4.3V10.4z"/>
	</g>
</g>
</svg>
