<?xml version="1.0" encoding="utf-8"?>
<!-- Generator: Adobe Illustrator 22.1.0, SVG Export Plug-In . SVG Version: 6.00 Build 0)  -->
<svg version="1.1" id="Слой_1" xmlns="http://www.w3.org/2000/svg" xmlns:xlink="http://www.w3.org/1999/xlink" x="0px" y="0px"
	 viewBox="0 0 12 12" style="enable-background:new 0 0 12 12;" xml:space="preserve">
<style type="text/css">
	.st0{fill:#28a5e0;}
</style>
<g>
	<g>
		<path class="st0" d="M2.7,5.6h6.5c1.5,0,2.7-1.3,2.7-2.8C12,1.3,10.8,0,9.3,0H2.7C1.2,0,0,1.3,0,2.8C0,4.3,1.2,5.6,2.7,5.6z
			 M2.7,1.2c0.9,0,1.5,0.7,1.5,1.6c0,0.9-0.7,1.6-1.5,1.6c-0.9,0-1.5-0.7-1.5-1.6C1.2,1.9,1.9,1.2,2.7,1.2z M9.3,6.4H2.7
			C1.2,6.4,0,7.7,0,9.2C0,10.7,1.2,12,2.7,12h6.5c1.5,0,2.7-1.3,2.7-2.8C12,7.7,10.8,6.4,9.3,6.4z M9.3,10.8c-0.9,0-1.5-0.7-1.5-1.6
			c0-0.9,0.7-1.6,1.5-1.6s1.5,0.7,1.5,1.6C10.8,10.1,10.1,10.8,9.3,10.8z"/>
	</g>
</g>
</svg>
