<?xml version="1.0" encoding="utf-8"?>
<!-- Generator: Adobe Illustrator 22.1.0, SVG Export Plug-In . SVG Version: 6.00 Build 0)  -->
<svg version="1.1" id="Слой_1" xmlns="http://www.w3.org/2000/svg" xmlns:xlink="http://www.w3.org/1999/xlink" x="0px" y="0px"
	 viewBox="0 0 12 12" style="enable-background:new 0 0 12 12;" xml:space="preserve">
<style type="text/css">
	.st0{fill:#1D1D1B;}
</style>
<path class="st0" d="M11,4c0.6,1.2,0.6,2.6,0.1,3.9c-0.8,1.8-2.6,3.3-5,4.1l0,0l0,0l0,0l0,0c-2.4-0.8-4.3-2.3-5-4.1
	C0.3,6.6,0.4,5.2,1,4l0,0c0.6-0.9,0.6-1.6,0-2.4l0-0.1l0.9-1.1l0.1,0c1.3,0.6,2.8,0.4,4-0.5l0,0l0,0l0,0l0,0c1.2,0.9,2.7,1,4,0.5
	l0.1,0l0.9,1.1l0,0.1C10.4,2.3,10.4,3.1,11,4L11,4z"/>
</svg>
