<?xml version="1.0" encoding="utf-8"?>
<!-- Generator: Adobe Illustrator 22.1.0, SVG Export Plug-In . SVG Version: 6.00 Build 0)  -->
<svg version="1.1" id="Слой_1" xmlns="http://www.w3.org/2000/svg" xmlns:xlink="http://www.w3.org/1999/xlink" x="0px" y="0px"
	 viewBox="0 0 12 12" style="enable-background:new 0 0 12 12;" xml:space="preserve">
<style type="text/css">
	.st0{fill:#1D1D1B;}
</style>
<g>
	<g>
		<path class="st0" d="M2.8,2.4c0.4,0,0.7-0.3,0.7-0.6V0.6C3.5,0.3,3.2,0,2.8,0C2.5,0,2.2,0.3,2.2,0.6v1.2C2.2,2.1,2.5,2.4,2.8,2.4z
			 M9.2,2.4c0.4,0,0.7-0.3,0.7-0.6V0.6C9.8,0.3,9.5,0,9.2,0C8.8,0,8.5,0.3,8.5,0.6v1.2C8.5,2.1,8.8,2.4,9.2,2.4z M11.8,1.2h-1.3
			c0,0,0.3,0,0.2,0c0.1,0-0.2,0.1-0.2,0.2v0.4C10.5,2.5,9.9,3,9.2,3C8.4,3,7.9,2.5,7.9,1.8V1.2H4.1v0.6C4.1,2.5,3.6,3,2.8,3
			C2.1,3,1.5,2.5,1.5,1.8V1.4c0-0.1-0.1-0.2,0-0.2H0.2C0.1,1.2,0,1.3,0,1.4v2h12v-2C12,1.3,11.9,1.2,11.8,1.2z M0,11.8
			C0,11.9,0.1,12,0.2,12h11.6c0.1,0,0.2-0.1,0.2-0.2v-8H0V11.8z M8.3,5.2C8.3,5.1,8.4,5,8.5,5H10c0.1,0,0.2,0.1,0.2,0.2v1.4
			c0,0.1-0.1,0.2-0.2,0.2H8.5c-0.1,0-0.2-0.1-0.2-0.2V5.2z M8.3,8c0-0.1,0.1-0.2,0.2-0.2H10c0.1,0,0.2,0.1,0.2,0.2v1.4
			c0,0.1-0.1,0.2-0.2,0.2H8.5c-0.1,0-0.2-0.1-0.2-0.2V8z M5,5.2C5,5.1,5.1,5,5.2,5h1.5C6.9,5,7,5.1,7,5.2v1.4c0,0.1-0.1,0.2-0.2,0.2
			H5.2C5.1,6.8,5,6.7,5,6.6V5.2z M5,8c0-0.1,0.1-0.2,0.2-0.2h1.5C6.9,7.8,7,7.9,7,8v1.4c0,0.1-0.1,0.2-0.2,0.2H5.2
			C5.1,9.6,5,9.5,5,9.4V8z M1.7,5.2C1.7,5.1,1.8,5,2,5h1.5c0.1,0,0.2,0.1,0.2,0.2v1.4c0,0.1-0.1,0.2-0.2,0.2H2
			c-0.1,0-0.2-0.1-0.2-0.2V5.2z M1.7,8c0-0.1,0.1-0.2,0.2-0.2h1.5c0.1,0,0.2,0.1,0.2,0.2v1.4c0,0.1-0.1,0.2-0.2,0.2H2
			c-0.1,0-0.2-0.1-0.2-0.2V8z"/>
	</g>
</g>
</svg>
