<?xml version="1.0" encoding="utf-8"?>
<!-- Generator: Adobe Illustrator 22.1.0, SVG Export Plug-In . SVG Version: 6.00 Build 0)  -->
<svg version="1.1" id="Слой_1" xmlns="http://www.w3.org/2000/svg" xmlns:xlink="http://www.w3.org/1999/xlink" x="0px" y="0px"
	 viewBox="0 0 12 12" style="enable-background:new 0 0 12 12;" xml:space="preserve">
<style type="text/css">
	.st0{fill:#1D1D1B;}
</style>
<path class="st0" d="M6,0C2.7,0,0,2.7,0,6c0,3.3,2.7,6,6,6c3.3,0,6-2.7,6-6C12,2.7,9.3,0,6,0z M6.6,8.8c0,0.5-0.4,0.9-0.9,0.9
	c-0.5,0-0.9-0.4-0.9-0.9v0c0-0.5,0.4-0.9,0.9-0.9C6.3,7.9,6.6,8.3,6.6,8.8L6.6,8.8z M8.4,4.5c0,1.3-0.9,1.8-2,2l0,0.4
	c0,0.3-0.3,0.5-0.5,0.5H5.5C5.2,7.4,5,7.2,5,6.9V6C4.9,5.7,5.3,5.5,5.6,5.4C6.5,5.3,6.9,5,6.9,4.5v0c0-0.5-0.3-0.7-0.9-0.7
	c-0.4,0-0.8,0.1-1.2,0.4C4.6,4.3,4.5,4.4,4.3,4.4C3.9,4.4,3.6,4,3.6,3.7c0-0.2,0.1-0.4,0.3-0.5C4.4,2.7,5.1,2.4,6,2.4
	C7.4,2.4,8.4,3.1,8.4,4.5L8.4,4.5z"/>
</svg>
