<?xml version="1.0" encoding="utf-8"?>
<!-- Generator: Adobe Illustrator 22.1.0, SVG Export Plug-In . SVG Version: 6.00 Build 0)  -->
<svg version="1.1" id="Слой_1" xmlns="http://www.w3.org/2000/svg" xmlns:xlink="http://www.w3.org/1999/xlink" x="0px" y="0px"
	 viewBox="0 0 12 12" style="enable-background:new 0 0 12 12;" xml:space="preserve">
<style type="text/css">
	.st0{fill:#1D1D1B;}
</style>
<path class="st0" d="M8.4,4.5c0.1-0.1,0.1-0.3-0.1-0.4C8.2,4.1,8.1,4.1,8,4.2L3,8.4l-2.6-1C0.1,7.3-0.1,6.9,0,6.6
	c0.1-0.1,0.2-0.3,0.3-0.3l10.9-6.2c0.3-0.1,0.6-0.1,0.7,0.2C12,0.4,12,0.5,12,0.6l-1,10c0,0.4-0.4,0.6-0.7,0.6c-0.1,0-0.1,0-0.2,0
	L7,10l-2,1.9c-0.2,0.2-0.5,0.2-0.7,0c-0.1-0.1-0.1-0.2-0.1-0.4V10L8.4,4.5z"/>
</svg>
