<?xml version="1.0" encoding="utf-8"?>
<!-- Generator: Adobe Illustrator 22.1.0, SVG Export Plug-In . SVG Version: 6.00 Build 0)  -->
<svg version="1.1" id="Слой_1" xmlns="http://www.w3.org/2000/svg" xmlns:xlink="http://www.w3.org/1999/xlink" x="0px" y="0px"
	 viewBox="0 0 12 12" style="enable-background:new 0 0 12 12;" xml:space="preserve">
<style type="text/css">
	.st0{fill:#1D1D1B;}
</style>
<path class="st0" d="M6,12c-0.7,0-1.4-0.1-2-0.3c-2.4-0.8-3.9-3-4-5.5c-0.1-2.5,1.4-4.7,3.6-5.7c2.2-1,4.7-0.5,6.4,1.2l1-0.8
	c0.2-0.1,0.4-0.2,0.6-0.1C11.8,0.9,12,1.1,12,1.3l0,0l0,3.4c0,0.2-0.1,0.3-0.2,0.4c-0.1,0.1-0.3,0.1-0.5,0.1L8,4.4
	C7.8,4.4,7.6,4.2,7.6,4c0-0.2,0-0.4,0.2-0.6l0.8-0.6c-1.2-1-2.9-1.2-4.3-0.6C2.7,3,1.8,4.5,1.9,6.2C2,7.9,3.1,9.3,4.6,9.9
	C6.2,10.4,8,10,9.1,8.7c0.1-0.1,0.2-0.1,0.3-0.1c0.1,0,0.2,0,0.3,0.1l0.8,0.7c0.1,0.1,0.1,0.2,0.1,0.3c0,0.1,0,0.2-0.1,0.3
	C9.4,11.3,7.7,12,6,12z"/>
</svg>
